<?xml version="1.0" standalone="no"?>
<!DOCTYPE svg PUBLIC "-//W3C//DTD SVG 20010904//EN"
 "http://www.w3.org/TR/2001/REC-SVG-20010904/DTD/svg10.dtd">
<svg version="1.0" xmlns="http://www.w3.org/2000/svg"
 width="1024.000000pt" height="1024.000000pt" viewBox="0 0 1024.000000 1024.000000"
 preserveAspectRatio="xMidYMid meet">

<g transform="translate(0.000000,1024.000000) scale(0.100000,-0.100000)"
fill="#000000" stroke="none">
<path d="M0 5120 l0 -5120 5120 0 5120 0 0 5120 0 5120 -5120 0 -5120 0 0
-5120z m5471 3906 c105 -14 285 -92 418 -181 244 -164 430 -464 522 -842 13
-51 26 -90 29 -88 4 3 6 -8 4 -23 -2 -15 3 -52 10 -82 7 -30 19 -83 27 -117 7
-35 17 -63 22 -63 4 0 6 -4 3 -9 -8 -12 43 -185 55 -189 5 -2 7 -8 3 -13 -3
-5 0 -9 5 -9 6 0 11 -7 11 -15 0 -9 7 -18 15 -21 8 -4 15 -10 15 -16 0 -5 -4
-7 -8 -4 -4 2 -8 -4 -8 -14 0 -10 4 -16 8 -14 5 3 10 -1 12 -8 20 -72 41 -126
47 -122 4 2 5 -4 3 -13 -2 -10 4 -28 14 -41 17 -21 18 -22 18 -3 0 11 -4 18
-7 15 -4 -2 -10 -1 -13 4 -2 4 7 9 21 10 21 2 24 -2 20 -18 -3 -11 1 -27 10
-35 13 -13 13 -15 -1 -15 -9 0 -16 -4 -16 -8 0 -10 111 -192 148 -243 55 -74
194 -219 267 -279 154 -124 330 -216 469 -245 91 -18 99 -22 92 -41 -3 -9 7
-17 32 -24 20 -5 71 -20 112 -32 76 -23 85 -25 108 -27 7 0 10 -6 6 -12 -4 -7
4 -10 22 -9 33 2 74 -9 74 -20 0 -4 28 -15 63 -24 129 -36 287 -102 287 -121
0 -5 27 -23 60 -39 32 -16 57 -33 54 -37 -2 -4 6 -13 18 -20 50 -26 165 -135
191 -180 16 -27 32 -49 36 -49 4 0 8 -6 9 -12 1 -15 28 -93 42 -123 18 -38 48
-130 49 -150 3 -77 -1 -138 -9 -160 -5 -14 -9 -43 -8 -63 0 -21 -6 -51 -15
-67 -9 -17 -30 -57 -47 -90 -31 -61 -42 -53 -15 11 8 19 10 32 5 29 -10 -6
-14 7 -11 33 4 28 -33 8 -94 -52 -82 -80 -85 -68 -5 18 52 55 60 68 54 90 -3
15 -10 29 -15 32 -15 9 -10 24 6 18 8 -4 15 -14 15 -24 0 -11 3 -21 8 -23 4
-3 8 23 10 56 1 34 6 76 11 92 l8 30 7 -32 c10 -45 33 -42 42 5 26 134 -14
262 -99 320 -44 29 -51 31 -130 29 -64 -2 -83 1 -80 11 4 8 -9 12 -46 12 -40
0 -52 -4 -61 -20 -6 -10 -9 -24 -8 -31 2 -6 -3 -14 -11 -17 -10 -3 -12 0 -8
12 4 10 1 16 -7 16 -20 0 -37 -25 -30 -44 4 -11 0 -16 -14 -16 -23 0 -72 -53
-72 -79 0 -9 7 -26 15 -37 17 -22 19 -34 6 -34 -5 0 -14 14 -21 30 -7 18 -20
30 -30 30 -10 0 -26 8 -36 17 -16 17 -17 14 -11 -57 4 -46 3 -67 -3 -55 -5 11
-9 49 -10 85 -1 60 -2 64 -16 45 -8 -11 -13 -28 -10 -37 2 -10 0 -18 -6 -18
-5 0 -7 -12 -4 -27 2 -16 7 -44 10 -63 4 -20 20 -50 36 -68 17 -18 30 -43 30
-55 -1 -21 -1 -21 -14 3 -13 23 -14 21 -9 -24 5 -39 0 -63 -27 -130 -27 -68
-37 -82 -52 -78 -10 2 -18 -1 -18 -7 0 -21 -68 -102 -76 -89 -5 7 -11 5 -21
-7 -12 -18 -13 -18 -13 3 0 14 -13 30 -37 46 -56 35 -89 74 -117 139 -33 73
-32 85 2 93 15 3 33 7 40 10 7 2 24 -3 37 -12 49 -32 59 10 21 91 -15 32 -20
52 -13 57 10 6 8 32 -12 166 -16 107 -85 210 -211 316 -38 32 -40 35 -12 19
69 -38 156 -143 222 -268 68 -130 138 -243 161 -262 32 -26 41 -20 41 32 0
121 -25 194 -79 228 -7 4 -13 13 -13 20 0 7 -14 39 -30 71 -17 32 -30 70 -30
84 0 20 -3 23 -12 14 -19 -19 -31 -14 -25 10 7 27 -31 82 -86 123 -74 55 -126
86 -332 196 -33 18 -74 43 -91 55 -17 13 -34 24 -38 24 -3 0 -28 15 -54 34
-27 18 -78 52 -115 74 -90 54 -205 150 -253 209 -21 26 -53 62 -70 80 -17 18
-29 34 -27 37 2 2 -1 7 -7 11 -6 3 -9 1 -8 -6 2 -7 -8 -16 -22 -20 -14 -4 -19
-7 -12 -8 6 -1 12 -10 12 -22 0 -11 4 -17 10 -14 5 3 7 0 4 -8 -5 -13 48 -107
148 -260 26 -39 45 -73 43 -76 -10 -10 -111 89 -166 162 -53 71 -203 353 -262
493 -10 23 -31 58 -47 79 -16 20 -30 40 -32 45 -2 4 -12 10 -22 12 -18 3 -20
-2 -17 -46 2 -36 0 -46 -10 -41 -16 11 -5 -147 20 -270 54 -265 194 -580 344
-774 31 -40 57 -76 57 -81 0 -10 304 -315 373 -374 32 -27 67 -58 80 -68 12
-11 33 -29 47 -40 14 -12 48 -42 75 -67 28 -25 73 -66 102 -90 28 -24 75 -75
105 -113 70 -91 114 -139 141 -153 12 -6 21 -18 19 -25 -3 -11 0 -11 12 0 19
15 21 24 4 14 -8 -5 -9 -2 -5 9 3 10 3 17 -1 17 -4 0 -13 15 -21 33 -8 17 -26
50 -39 72 -14 22 -18 34 -9 27 17 -14 127 -178 172 -257 16 -27 32 -52 37 -55
12 -9 108 -214 108 -232 0 -21 33 -40 54 -32 8 3 18 19 21 36 8 35 -2 115 -16
123 -5 4 -9 16 -9 29 0 13 -9 49 -20 81 -11 32 -19 60 -17 61 5 5 57 -131 57
-149 0 -8 7 -31 15 -50 8 -20 18 -66 21 -104 4 -37 12 -106 18 -153 10 -77 13
-85 34 -88 18 -3 22 1 23 25 0 15 4 37 9 48 5 11 6 -38 3 -115 l-6 -135 24 22
c40 36 54 103 53 248 0 136 8 133 27 -10 18 -139 -14 -279 -104 -463 -46 -92
-70 -123 -202 -267 -58 -63 -161 -141 -210 -159 -27 -11 -61 -26 -75 -36 -14
-9 -42 -21 -62 -27 -34 -10 -37 -9 -28 5 18 31 37 52 47 52 5 0 38 18 72 40
34 22 65 40 69 41 41 3 172 150 172 192 0 9 5 17 10 17 6 0 10 11 10 25 0 25
-1 25 -27 11 -16 -8 -59 -37 -98 -65 -65 -48 -95 -61 -95 -43 0 4 45 59 99
122 55 62 105 125 111 139 7 14 17 35 23 46 13 24 10 215 -3 250 -17 44 -31
29 -24 -24 4 -31 2 -51 -5 -55 -6 -4 -11 -1 -11 6 -1 59 -32 234 -44 247 -8 9
-17 29 -20 45 -3 16 -15 40 -28 54 -28 30 -128 88 -146 84 -7 -2 -11 3 -10 10
2 7 -3 12 -11 10 -7 -1 -19 2 -27 9 -7 6 -51 14 -96 16 -72 5 -89 2 -133 -18
-27 -12 -52 -25 -55 -28 -3 -3 -22 -15 -42 -25 -21 -11 -38 -23 -38 -28 0 -5
14 -1 31 8 76 39 233 69 284 55 26 -7 20 -9 -40 -15 -38 -4 -77 -10 -85 -13
-8 -4 -19 -5 -24 -4 -6 1 -20 0 -33 -3 -15 -4 -20 -11 -16 -22 5 -14 3 -14
-14 -4 -16 10 -26 9 -59 -8 l-39 -21 38 6 c22 3 37 2 37 -5 0 -11 -33 -22 -70
-22 -36 0 -104 -58 -167 -142 -82 -110 -91 -127 -109 -213 -15 -74 -15 -88 0
-180 22 -140 24 -186 13 -300 -15 -163 -67 -317 -133 -396 -52 -62 -144 -125
-144 -99 0 6 6 10 14 10 8 0 16 3 18 8 2 4 22 22 45 40 115 90 204 364 182
557 -14 120 -51 305 -60 305 -12 0 -19 -61 -19 -159 0 -142 -18 -326 -35 -366
-38 -93 -131 -182 -255 -246 -36 -18 -66 -36 -67 -39 -2 -3 -32 -3 -68 -2 -49
3 -65 0 -66 -10 0 -7 -5 -2 -10 11 -7 17 -15 22 -30 18 -25 -7 -81 12 -73 24
5 8 -1 11 -35 13 -19 1 -27 26 -8 26 31 0 31 53 0 65 -20 7 -35 -13 -28 -40 2
-12 1 -34 -4 -50 -7 -26 -8 -23 -14 31 -3 34 -11 73 -16 87 -10 25 -55 52 -99
59 -9 2 -25 13 -35 25 -14 18 -29 23 -65 23 -56 0 -86 -14 -62 -30 12 -8 9
-10 -12 -10 -18 0 -28 5 -28 15 0 19 -39 20 -65 1 -11 -7 -37 -16 -58 -20 -21
-4 -35 -11 -32 -16 3 -5 0 -12 -6 -16 -8 -4 -9 -3 -5 4 16 26 -17 10 -59 -29
-47 -44 -85 -110 -85 -150 1 -54 79 -175 95 -148 10 15 63 -108 85 -198 l17
-72 -26 -28 c-30 -33 -134 -113 -146 -113 -5 0 20 26 53 58 52 48 62 63 62 90
0 20 4 31 10 27 23 -14 0 102 -27 140 -15 20 -15 20 -8 -2 3 -13 0 -32 -9 -45
-8 -13 -15 -27 -14 -31 1 -17 -61 -106 -83 -117 -22 -12 -22 -12 2 19 52 69
69 94 69 105 0 6 -9 -4 -20 -22 -22 -35 -37 -45 -20 -11 7 11 9 23 6 27 -3 3
-6 0 -6 -7 0 -7 -4 -10 -8 -7 -5 3 -36 -21 -69 -52 -33 -32 -76 -66 -97 -76
-39 -18 -182 -110 -230 -148 -16 -12 -41 -24 -55 -26 -14 -2 -44 -12 -67 -23
-47 -22 -54 -23 -54 -6 0 7 18 20 40 30 39 17 57 33 23 20 -15 -6 -16 -4 -6 9
7 8 10 17 7 20 -4 5 39 25 66 32 25 7 61 44 71 74 7 20 17 40 23 44 6 4 11 11
11 16 0 9 69 82 79 82 3 0 6 -9 6 -21 0 -19 1 -19 23 -4 67 47 176 158 182
186 4 17 13 33 20 35 17 7 12 38 -15 98 -18 39 -20 57 -14 95 4 25 9 53 10 61
1 8 12 40 24 70 12 30 25 67 30 82 17 56 99 214 124 241 14 15 26 32 26 38 0
5 5 10 10 10 6 1 13 2 18 3 4 1 23 11 43 24 20 12 40 22 45 22 27 0 194 206
194 239 0 6 5 11 10 11 6 0 10 6 10 14 0 8 4 17 8 20 5 3 4 -20 -1 -51 -6 -38
-6 -58 0 -60 12 -4 4 -53 -8 -53 -5 0 -9 -8 -9 -17 1 -13 15 -3 47 32 47 51
49 46 7 -12 -13 -17 -24 -41 -24 -52 0 -19 5 -21 51 -19 44 2 58 9 95 41 25
22 44 33 44 25 1 -8 6 -6 15 6 17 22 19 15 15 -47 -1 -28 4 -45 20 -62 15 -16
20 -33 19 -61 -2 -43 8 -99 24 -129 9 -18 13 -15 54 30 l44 50 -26 -42 c-15
-23 -38 -49 -51 -58 -20 -13 -23 -19 -13 -36 8 -16 13 -18 24 -9 8 6 15 21 17
33 2 12 4 0 5 -28 0 -27 5 -69 12 -92 10 -38 15 -43 41 -43 23 0 42 14 87 60
32 33 63 65 68 72 21 26 74 135 69 141 -3 3 -1 13 5 24 25 45 43 148 57 326 8
106 23 253 34 327 11 74 19 169 19 210 -3 193 -3 228 2 267 3 25 2 40 -4 36
-6 -4 -7 5 -3 23 22 91 27 133 21 164 -3 19 -8 49 -10 67 -3 17 -30 87 -60
155 -30 68 -55 126 -55 130 0 4 -12 32 -26 62 -14 30 -24 61 -22 68 3 7 -6 37
-19 67 -13 29 -22 56 -19 59 5 5 -73 102 -107 134 -11 9 -17 21 -14 25 3 4
-15 6 -39 4 -34 -2 -44 0 -44 12 0 9 -12 28 -28 44 -32 33 -84 113 -117 180
-30 63 -100 247 -115 302 -6 24 -15 51 -19 60 -12 24 -41 109 -57 165 -16 59
-34 74 -51 43 -8 -15 -21 -22 -40 -22 -49 0 -55 -30 -51 -258 6 -397 -3 -635
-27 -640 -15 -3 -43 133 -65 318 -23 195 -25 202 -50 215 -17 9 -21 6 -28 -22
-5 -18 -10 -98 -11 -178 -2 -80 -9 -181 -16 -225 l-13 -80 6 135 c10 208 6
339 -11 356 -4 5 -16 -155 -19 -261 -1 -49 -4 -30 -9 65 -9 154 -10 160 -18
160 -9 0 -41 -38 -41 -48 0 -4 -5 -13 -12 -20 -6 -6 -13 -17 -14 -24 -6 -29
-13 -56 -27 -98 -8 -25 -25 -76 -37 -115 -13 -38 -26 -74 -31 -80 -7 -10 -30
-109 -53 -230 -25 -131 -51 -235 -58 -235 -10 0 -10 12 1 63 18 77 42 251 46
327 4 67 3 73 -10 55 -8 -11 -19 -26 -25 -32 -6 -7 -11 -16 -11 -20 -1 -5 -5
-18 -10 -31 -5 -13 -12 -34 -15 -47 -3 -14 -11 -25 -17 -25 -6 0 -8 -3 -4 -6
11 -11 -33 -84 -51 -84 -15 0 -85 -95 -104 -141 -9 -24 -28 -33 -28 -15 0 29
-32 17 -72 -26 -36 -39 -53 -64 -97 -147 -8 -14 -17 -28 -20 -31 -16 -14 -101
-185 -101 -205 0 -6 -6 -25 -14 -41 -30 -60 -126 -286 -126 -295 0 -6 -5 -15
-10 -22 -6 -7 -40 -60 -75 -120 -36 -59 -69 -113 -75 -120 -6 -6 -31 -41 -56
-75 -36 -51 -44 -70 -40 -90 6 -26 6 -26 -9 -8 -15 19 -15 19 -13 -6 2 -26 3
-26 36 -13 79 34 151 110 280 299 45 66 82 116 82 112 0 -4 -22 -41 -49 -81
-27 -40 -57 -88 -67 -107 -27 -53 -149 -191 -258 -293 -114 -106 -159 -141
-266 -209 -93 -58 -302 -217 -307 -233 -8 -23 63 -3 182 50 155 70 240 113
290 147 53 35 65 42 65 36 0 -6 -236 -156 -245 -156 -4 0 -31 -15 -61 -32 -52
-32 -70 -58 -39 -58 23 0 75 29 75 41 0 8 4 8 13 0 10 -8 26 -7 61 5 26 9 49
14 52 11 3 -2 -30 -17 -73 -32 -100 -35 -120 -44 -165 -75 -42 -28 -45 -35
-23 -44 35 -13 387 110 489 172 39 23 74 42 78 42 13 0 164 98 178 115 7 8 21
15 31 15 11 0 19 5 19 12 0 6 3 8 7 5 3 -4 17 3 30 15 20 18 26 20 33 8 22
-36 -98 -159 -268 -274 -146 -98 -150 -100 -308 -157 -45 -15 -104 -42 -131
-59 -27 -17 -58 -32 -68 -35 -22 -4 -193 -68 -240 -89 -16 -7 -45 -19 -63 -26
-18 -7 -42 -24 -53 -38 l-20 -26 23 -9 c13 -5 70 -6 128 -2 58 3 143 9 189 12
47 3 96 9 110 14 17 7 27 6 32 -3 4 -7 11 -9 14 -6 4 4 -5 19 -19 34 -15 17
-21 31 -15 35 14 8 60 -1 54 -11 -3 -4 2 -13 10 -20 14 -12 77 -8 128 6 12 4
17 0 17 -15 0 -12 5 -21 10 -21 7 0 7 -6 0 -19 -26 -50 4 -53 135 -15 87 25
201 76 335 149 36 20 54 27 40 16 -57 -45 -281 -151 -394 -186 -115 -36 -182
-66 -170 -77 3 -3 -14 -16 -38 -28 -102 -52 -130 -74 -121 -96 3 -8 28 -26 56
-40 53 -27 70 -29 349 -26 94 1 100 2 201 50 86 41 123 66 223 154 66 58 156
147 201 199 106 123 143 158 143 136 0 -9 -15 -38 -34 -64 -32 -44 -124 -214
-139 -256 -6 -16 -3 -18 23 -12 26 6 29 4 24 -12 -4 -10 -19 -34 -33 -53 -15
-19 -37 -55 -49 -80 -41 -86 -184 -215 -307 -278 -23 -11 -88 -37 -145 -58
-123 -44 -237 -52 -300 -22 -19 9 -71 33 -115 53 -44 21 -74 39 -68 42 7 2 20
-2 28 -11 9 -8 48 -25 88 -37 39 -12 83 -27 96 -33 33 -15 139 -14 179 3 l32
13 -33 18 c-18 10 -61 21 -97 24 -153 17 -236 52 -355 151 -105 87 -202 154
-246 168 -92 31 -327 40 -459 17 -36 -6 -78 -13 -95 -15 -36 -5 -206 -91 -290
-147 -173 -116 -287 -300 -302 -487 -7 -99 20 -288 52 -358 32 -71 142 -214
159 -207 7 3 27 -11 44 -30 18 -21 41 -36 54 -37 l23 0 -22 -16 -23 -15 25
-20 c20 -16 23 -23 14 -34 -7 -9 -8 -14 -1 -14 6 0 12 5 14 12 3 8 9 8 22 1
13 -7 15 -12 7 -18 -8 -5 -4 -14 14 -31 14 -13 29 -24 32 -24 4 0 14 -7 24
-16 14 -12 22 -13 38 -4 31 16 26 25 -26 48 -63 28 -41 28 25 1 l51 -21 -22
-19 c-18 -16 -20 -20 -7 -28 8 -5 18 -7 23 -4 5 3 13 -1 18 -8 6 -10 9 -11 9
-1 0 6 5 12 11 12 6 0 8 -7 5 -16 -5 -13 0 -15 35 -9 34 6 40 5 33 -6 -6 -12
-5 -12 8 -1 13 10 25 6 74 -23 59 -36 127 -60 197 -72 23 -3 37 -11 37 -20 0
-9 -7 -12 -17 -9 -10 3 -54 14 -98 25 -44 11 -129 37 -190 56 -60 20 -140 40
-177 44 -54 7 -81 18 -145 56 -43 27 -92 61 -108 77 -17 15 -36 28 -42 28 -7
0 -16 6 -20 13 -4 8 -21 22 -37 33 l-29 18 12 -22 c6 -12 23 -29 37 -38 13 -9
22 -19 20 -22 -3 -3 -26 10 -52 29 -130 95 -218 202 -328 397 -32 57 -64 106
-72 109 -8 3 -12 8 -9 13 2 4 -11 44 -30 89 -18 45 -41 114 -51 154 -9 40 -20
80 -25 89 -5 10 -11 55 -14 100 -3 46 -8 99 -10 118 -3 26 2 46 18 70 13 19
29 60 36 90 20 79 52 149 117 248 64 98 94 136 130 165 24 19 25 19 39 1 13
-18 15 -18 32 -2 12 13 13 18 4 18 -11 0 -11 3 -1 15 7 8 19 15 27 15 9 0 13
6 10 14 -6 15 22 46 41 46 7 0 12 5 12 10 0 6 5 10 10 10 6 0 20 9 32 20 12
11 30 20 41 20 10 0 32 11 49 25 16 14 37 25 46 25 15 0 15 2 2 10 -12 8 -11
10 8 10 22 0 156 44 222 73 19 8 64 27 100 42 99 41 413 199 516 259 92 54
196 126 224 155 8 9 31 28 50 42 50 38 146 132 220 219 36 41 67 77 71 80 16
15 49 80 49 99 0 11 5 21 10 21 6 0 10 6 10 13 0 8 11 34 23 60 13 25 19 43
13 40 -6 -4 -5 0 2 9 8 10 9 19 3 22 -9 6 -61 -38 -162 -137 -27 -27 -49 -52
-49 -56 0 -4 -37 -45 -82 -91 -76 -76 -201 -170 -227 -170 -6 0 -11 -6 -11
-14 0 -8 -10 -18 -22 -21 -13 -4 -48 -31 -78 -59 -74 -70 -108 -94 -220 -153
-52 -28 -122 -65 -155 -83 -169 -93 -298 -160 -306 -160 -5 0 -17 -4 -27 -10
-9 -5 -43 -21 -75 -35 -31 -15 -55 -31 -52 -36 4 -5 -1 -6 -10 -3 -11 5 -18 0
-22 -15 -3 -11 -9 -18 -14 -15 -5 3 -9 1 -9 -5 0 -6 -7 -8 -15 -5 -21 8 -146
-56 -230 -118 -99 -74 -179 -159 -247 -263 -32 -49 -58 -87 -58 -83 0 4 15 43
34 87 44 105 146 219 271 305 50 33 95 63 100 66 6 3 28 17 50 31 22 14 78 43
125 63 47 20 92 41 100 47 8 5 22 12 30 15 100 37 356 177 430 236 19 15 57
37 85 49 57 25 114 69 245 188 135 123 228 218 280 287 24 32 74 93 110 134
88 100 87 98 175 230 84 124 149 248 185 348 13 34 24 61 26 59 12 -12 -91
-247 -138 -317 -45 -68 -148 -247 -148 -258 0 -7 -4 -12 -8 -12 -4 0 -8 -9 -8
-19 0 -29 22 -13 92 66 82 92 147 192 231 353 57 109 76 157 97 249 15 62 31
123 36 135 4 12 10 35 12 52 1 16 6 31 10 34 9 7 14 127 6 135 -13 13 -27 -5
-44 -58 -9 -28 -23 -61 -31 -72 l-15 -20 5 20 c35 134 39 166 33 296 -3 74 -5
146 -6 160 0 15 -7 32 -15 39 -8 7 -15 20 -15 29 0 9 -6 41 -14 71 -8 30 -16
73 -19 95 -3 22 -10 69 -16 105 -6 38 -8 124 -4 208 5 112 3 146 -7 152 -14 8
-17 28 -26 135 -3 38 -10 77 -14 86 -5 8 -12 38 -15 65 -6 47 1 91 38 237 9
31 13 57 11 57 -5 0 -86 -52 -94 -60 -32 -34 -177 -41 -243 -11 -90 41 -127
109 -127 229 0 96 23 149 105 237 l56 59 -3 286 c-2 255 0 291 16 340 11 30
22 57 26 60 14 10 21 60 8 60 -16 0 -136 -123 -175 -180 -102 -150 -184 -374
-223 -610 -20 -124 -107 -498 -119 -515 -4 -5 -16 -37 -25 -70 -10 -33 -21
-69 -26 -80 -4 -11 -13 -40 -20 -65 -6 -25 -16 -61 -22 -80 -17 -56 -79 -183
-100 -207 -12 -12 -18 -29 -15 -37 4 -9 3 -16 -1 -16 -4 0 -18 -18 -32 -39
-13 -22 -29 -37 -34 -34 -6 4 -8 3 -4 -2 12 -13 -64 -105 -187 -228 -122 -121
-202 -172 -340 -217 -38 -12 -106 -39 -150 -60 -97 -46 -200 -77 -280 -85
-102 -11 -195 -45 -195 -71 0 -8 -5 -12 -10 -9 -6 4 -25 8 -43 10 l-32 4 25
-20 25 -21 -25 6 c-14 3 -36 9 -49 13 -15 3 -22 2 -18 -4 7 -11 -42 -37 -91
-47 -39 -9 -74 -62 -50 -77 7 -5 9 -9 3 -9 -5 0 22 -18 60 -41 56 -33 85 -43
145 -51 105 -13 102 -21 -5 -13 -154 12 -289 49 -336 91 -15 13 -19 13 -33 -2
-16 -15 -16 -18 1 -36 19 -22 75 -52 132 -73 27 -10 30 -14 14 -14 -34 -1
-108 34 -150 72 -21 19 -48 39 -60 46 -43 22 -57 67 -57 182 -1 92 -4 110 -21
129 -71 78 -238 93 -339 31 -122 -76 -200 -280 -200 -521 0 -127 23 -267 45
-280 8 -5 6 -17 -6 -40 -9 -17 -19 -30 -22 -27 -2 3 0 15 7 26 6 13 7 21 1 21
-6 0 -13 -17 -17 -37 -7 -42 -20 -71 -41 -91 -8 -8 -13 -38 -14 -75 -1 -46 -3
-56 -9 -37 -11 34 -12 100 -2 100 5 0 14 29 21 64 18 89 3 150 -60 253 -40 66
-53 99 -65 165 -25 130 -52 141 -55 23 -1 -33 -4 -51 -6 -40 -8 28 15 264 34
355 15 75 43 143 64 155 6 4 4 -6 -4 -21 -8 -16 -25 -69 -37 -117 -23 -87 -23
-89 -5 -123 l18 -34 19 27 c10 16 18 34 18 41 0 44 93 185 197 298 93 101 260
200 458 273 11 4 40 17 65 29 25 11 56 24 70 29 22 7 20 8 -20 14 -37 5 -31 7
32 6 53 0 79 -4 82 -13 3 -7 33 -15 73 -19 37 -4 74 -12 81 -18 7 -5 15 -7 19
-4 3 4 12 2 20 -5 7 -6 16 -8 20 -5 3 4 17 -3 31 -13 15 -12 40 -20 63 -20 21
0 40 -4 43 -9 7 -10 76 -20 76 -11 0 4 -28 14 -62 22 l-63 16 91 1 c50 0 94
-2 97 -6 4 -3 32 -8 63 -10 31 -3 91 -13 132 -24 89 -23 114 -23 167 -5 22 8
48 12 57 11 10 -2 18 0 18 4 0 4 23 15 51 26 32 11 54 25 56 36 3 11 10 19 15
19 6 0 8 -7 4 -15 -7 -19 15 -9 84 39 25 17 48 30 52 29 13 -4 108 89 101 99
-3 6 -1 8 5 4 9 -5 55 44 111 117 12 15 12 17 -1 12 -11 -4 -15 4 -16 35 -2
34 0 40 18 40 11 0 20 6 20 14 0 8 14 21 31 30 26 13 29 13 19 1 -7 -8 -18
-15 -25 -15 -11 0 -39 -79 -31 -88 5 -4 86 118 86 129 0 5 -5 9 -11 9 -5 0 -7
5 -4 10 4 6 10 8 15 5 5 -3 29 34 54 83 63 125 99 216 86 220 -5 2 -10 8 -10
14 0 6 7 8 15 4 9 -3 15 0 15 10 0 9 -8 14 -17 13 -10 -1 -33 4 -50 11 l-33
12 0 71 c0 50 3 67 10 57 6 -10 10 -11 10 -2 0 8 18 12 54 12 35 0 56 -5 59
-12 2 -7 3 -5 2 4 -2 9 2 19 8 21 5 1 11 16 13 32 2 17 8 52 14 78 15 62 8 81
-28 73 -15 -3 -21 -3 -14 0 6 3 12 23 12 45 0 31 4 39 18 39 12 0 23 13 32 35
8 19 18 35 23 35 4 0 5 9 2 21 -5 14 -1 25 12 35 10 9 12 13 6 9 -16 -8 -18
31 -2 41 7 4 7 10 1 16 -6 6 -8 17 -5 24 3 8 -1 14 -8 14 -8 0 -4 7 8 15 12 8
27 31 33 50 6 19 15 35 19 35 14 0 44 78 37 96 -4 10 -3 20 2 23 21 15 74 105
79 135 4 29 2 34 -13 33 -15 -2 -20 6 -22 33 -2 29 0 32 8 17 6 -9 9 -21 6
-26 -4 -5 4 -7 16 -3 12 3 85 69 162 148 157 158 283 250 422 305 43 17 81 35
84 38 3 4 14 7 25 8 37 1 120 15 127 21 7 7 281 -2 359 -12z m-1751 -876 c0
-5 -5 -10 -11 -10 -5 0 -7 5 -4 10 3 6 8 10 11 10 2 0 4 -4 4 -10z m-592 -527
c-15 -2 -42 -2 -60 0 -18 2 -6 4 27 4 33 0 48 -2 33 -4z m305 0 c-7 -2 -21 -2
-30 0 -10 3 -4 5 12 5 17 0 24 -2 18 -5z m190 -131 c34 2 70 8 80 12 14 7 17
3 17 -28 0 -35 -1 -36 -39 -36 -21 0 -59 3 -85 6 -45 7 -46 7 -45 43 1 20 3
28 6 18 4 -16 13 -18 66 -15z m-426 -4 c-3 -8 -6 -5 -6 6 -1 11 2 17 5 13 3
-3 4 -12 1 -19z m134 -8 c22 0 29 -5 29 -20 0 -18 -7 -20 -74 -20 -53 0 -77 4
-86 15 -11 13 -8 15 14 15 14 0 26 5 26 11 0 8 11 9 31 5 17 -3 44 -6 60 -6z
m-316 -30 c8 -13 -85 -13 -105 0 -11 7 1 10 42 10 31 0 60 -4 63 -10z m4150 0
c4 -6 -19 -9 -62 -8 -64 1 -66 1 -23 8 69 11 78 11 85 0z m558 3 c-7 -2 -19
-2 -25 0 -7 3 -2 5 12 5 14 0 19 -2 13 -5z m-4184 -145 l1 -38 -80 0 -79 0 -7
34 c-3 19 -4 41 -1 48 3 7 6 1 6 -14 1 -34 8 -35 33 -3 11 14 30 25 44 25 17
0 24 5 24 20 0 13 7 20 20 20 12 0 21 7 21 18 2 26 17 -67 18 -110z m348 70
c-3 -8 -6 -5 -6 6 -1 11 2 17 5 13 3 -3 4 -12 1 -19z m-697 -63 l0 -45 -57 2
c-56 2 -56 2 -12 5 42 4 46 6 41 25 -4 16 -2 19 8 13 9 -5 11 -4 6 4 -8 12 -1
41 9 41 3 0 5 -20 5 -45z m700 2 l0 -42 -45 3 c-36 3 -45 8 -45 23 0 12 7 19
20 19 13 0 20 7 20 20 0 15 7 20 25 20 23 0 25 -4 25 -43z m2976 -45 c-10 -2
-22 0 -28 6 -6 6 0 7 19 4 21 -5 23 -7 9 -10z m119 8 c3 -5 1 -10 -4 -10 -6 0
-11 5 -11 10 0 6 2 10 4 10 3 0 8 -4 11 -10z m-3265 -110 l0 -70 -85 0 -85 0
0 29 c0 25 3 28 25 23 22 -4 25 -1 25 22 0 19 5 26 20 26 11 0 20 5 20 10 0
15 30 12 31 -2 0 -7 4 -3 9 10 5 12 16 22 25 22 12 0 15 -14 15 -70z m-360
-60 c0 -5 -10 -10 -22 -9 -22 0 -22 1 -3 9 11 5 21 9 23 9 1 1 2 -3 2 -9z
m160 -170 c0 -13 -7 -20 -20 -20 -13 0 -20 7 -20 20 0 13 7 20 20 20 13 0 20
-7 20 -20z m17 -12 c-3 -7 -5 -2 -5 12 0 14 2 19 5 13 2 -7 2 -19 0 -25z
m-349 4 c2 -8 -14 -12 -52 -12 -65 0 -76 17 -13 23 54 4 60 3 65 -11z m388
-152 c13 0 24 -4 24 -10 0 -5 -7 -10 -15 -10 -9 0 -18 -7 -22 -16 -10 -27 -23
6 -21 56 1 36 2 39 5 13 4 -27 9 -33 29 -33z m-1183 5 c85 -20 147 -44 147
-57 0 -6 -8 -7 -17 -3 -154 66 -389 73 -583 18 -70 -20 -97 -33 -195 -98 -74
-49 -120 -97 -240 -250 -36 -45 3 21 48 82 132 179 254 254 507 314 89 21 229
19 333 -6z m232 -81 c40 -25 185 -75 197 -68 7 4 10 3 5 -1 -4 -5 16 -19 45
-32 96 -43 -3 -17 -125 32 -62 26 -131 54 -154 63 -24 9 -43 20 -43 24 0 11
49 -1 75 -18z m-472 -41 c-13 -2 -33 -2 -45 0 -13 2 -3 4 22 4 25 0 35 -2 23
-4z m232 -3 c3 -5 -3 -10 -15 -10 -12 0 -18 5 -15 10 3 6 10 10 15 10 5 0 12
-4 15 -10z m-468 -34 c-32 -13 -64 -29 -72 -36 -12 -10 -15 -9 -15 4 0 10 5
14 10 11 6 -3 10 -1 10 5 0 6 5 8 10 5 6 -3 10 -2 10 3 0 10 54 30 85 31 11 0
-6 -10 -38 -23z m566 17 c-13 -2 -33 -2 -45 0 -13 2 -3 4 22 4 25 0 35 -2 23
-4z m74 -9 c-3 -3 -12 -4 -19 -1 -8 3 -5 6 6 6 11 1 17 -2 13 -5z m158 -20
c29 -13 27 -13 -32 -14 -35 0 -63 4 -63 9 0 5 -10 12 -22 14 -13 3 2 5 32 4
30 0 69 -6 85 -13z m-895 -30 c0 -8 -4 -12 -10 -9 -5 3 -10 2 -10 -2 0 -5 -28
-29 -62 -53 -35 -24 -92 -71 -127 -104 -35 -34 -59 -52 -53 -40 14 27 115 120
172 159 24 17 52 38 62 48 22 21 28 21 28 1z m-180 -68 c0 -2 -8 -10 -17 -17
-16 -13 -17 -12 -4 4 13 16 21 21 21 13z m6199 -112 c9 -8 -115 -2 -134 6 -13
6 7 7 55 3 41 -3 77 -7 79 -9z m541 -50 c0 -8 -5 -12 -10 -9 -6 4 -8 11 -5 16
9 14 15 11 15 -7z m-360 -134 c13 -9 13 -10 0 -9 -8 0 -24 4 -35 9 l-20 9 20
0 c11 0 27 -4 35 -9z m130 -20 c0 -5 -5 -10 -11 -10 -5 0 -7 5 -4 10 3 6 8 10
11 10 2 0 4 -4 4 -10z m55 -10 c3 -6 -1 -7 -9 -4 -18 7 -21 14 -7 14 6 0 13
-4 16 -10z m588 -293 c26 -35 80 -137 72 -137 -2 0 -16 23 -31 51 -14 29 -47
74 -72 102 -32 34 -39 45 -20 33 15 -10 38 -32 51 -49z m-2956 -69 c-3 -7 -5
-2 -5 12 0 14 2 19 5 13 2 -7 2 -19 0 -25z m-1697 -57 c-6 -12 -17 -21 -25
-21 -10 0 -8 7 8 23 26 27 33 27 17 -2z m1687 -33 c-3 -7 -5 -2 -5 12 0 14 2
19 5 13 2 -7 2 -19 0 -25z m-3194 -15 c-7 -2 -19 -2 -25 0 -7 3 -2 5 12 5 14
0 19 -2 13 -5z m1431 -25 c-21 -40 -290 -305 -318 -314 -26 -9 -95 -53 -139
-89 -7 -6 -23 -16 -37 -23 -14 -6 -32 -16 -40 -22 -27 -17 -244 -118 -305
-141 -33 -13 -67 -31 -75 -40 -20 -23 -79 -46 -137 -54 -72 -10 -84 -15 -92
-38 -6 -17 -3 -24 13 -33 44 -22 100 -23 214 -3 63 10 117 17 119 15 12 -11
-197 -49 -303 -55 -76 -4 -128 -12 -137 -20 -9 -7 -21 -10 -27 -6 -5 3 -22 -2
-38 -13 -15 -11 -33 -21 -41 -24 -16 -5 53 -40 118 -60 30 -9 41 -18 41 -33 0
-11 4 -25 8 -30 15 -21 62 -45 99 -50 52 -7 113 -13 143 -14 44 -2 7 -20 -57
-29 -80 -11 -189 1 -245 28 -46 21 -198 150 -178 150 6 0 8 5 5 10 -4 6 -10 8
-15 5 -4 -3 -13 2 -20 10 -11 13 -10 14 4 9 25 -9 19 10 -19 70 -48 75 -67 83
-26 12 18 -32 28 -55 23 -52 -6 3 -24 30 -40 59 -16 29 -37 58 -45 66 -9 7
-13 20 -10 28 4 10 2 14 -4 10 -13 -8 -21 31 -28 127 -3 39 -8 91 -10 115 l-5
44 38 -43 c23 -27 43 -41 50 -36 23 14 12 51 -27 96 l-39 45 -10 -25 c-9 -24
-10 -24 -18 -5 -4 11 -15 26 -23 33 -14 11 -13 11 7 2 29 -14 28 -3 -3 43 -29
42 -71 67 -113 67 -31 0 -142 -43 -209 -82 -48 -27 -90 -65 -115 -103 -15 -23
-18 -25 -13 -7 3 12 4 22 0 22 -9 0 -84 -163 -91 -199 -9 -41 -25 -40 -19 2 2
17 -3 7 -12 -23 -34 -118 -21 -246 37 -360 29 -58 46 -140 30 -150 -7 -5 -13
-23 -12 -42 0 -24 -2 -29 -8 -17 -6 10 -5 31 1 53 14 50 -2 95 -52 148 -21 23
-39 47 -39 54 0 6 -7 25 -15 42 -23 44 -34 157 -23 239 26 218 153 425 307
503 117 59 293 81 430 54 47 -10 96 -17 108 -17 13 1 21 -3 18 -7 -2 -4 23
-11 58 -14 76 -9 478 -75 492 -81 13 -6 -235 5 -257 11 -11 3 -18 0 -18 -9 0
-13 14 -23 38 -28 4 -1 18 -6 32 -11 13 -5 59 -9 101 -9 81 0 105 -11 93 -43
-4 -11 -1 -16 13 -16 10 0 24 -5 31 -12 7 -7 12 -9 12 -5 0 3 12 2 28 -5 78
-31 208 -26 259 10 16 11 55 27 88 37 33 9 62 21 65 25 3 4 39 30 82 56 68 44
208 149 248 188 13 12 49 31 68 35 1 1 -5 -14 -14 -31z m-2707 -30 c-3 -8 -6
-5 -6 6 -1 11 2 17 5 13 3 -3 4 -12 1 -19z m7560 -10 c-3 -7 -5 -2 -5 12 0 14
2 19 5 13 2 -7 2 -19 0 -25z m-6718 8 c-2 -2 -20 -6 -39 -10 -25 -4 -31 -3
-20 4 14 9 69 15 59 6z m-79 -16 c0 -5 -6 -10 -13 -10 -7 0 -36 -16 -65 -35
-28 -20 -52 -32 -52 -28 0 9 47 42 95 67 36 19 35 18 35 6z m6819 -152 c1 -42
-15 -145 -38 -248 -7 -30 -9 -23 -12 44 -3 67 -1 80 12 83 19 5 31 105 24 204
-4 62 -4 62 5 14 4 -27 9 -71 9 -97z m-5632 -30 c-25 -14 -117 -27 -123 -17
-2 4 12 11 33 14 21 4 41 7 46 8 4 1 19 3 34 4 23 1 24 -1 10 -9z m-1010 -44
c-3 -3 -12 -4 -19 -1 -8 3 -5 6 6 6 11 1 17 -2 13 -5z m5538 -34 c10 -11 16
-20 13 -20 -3 0 -13 9 -23 20 -10 11 -16 20 -13 20 3 0 13 -9 23 -20z m358
-55 c-7 -21 -12 -19 -10 4 0 11 5 18 9 15 4 -3 5 -11 1 -19z m41 -31 c3 -8 2
-12 -4 -9 -6 3 -10 10 -10 16 0 14 7 11 14 -7z m-6744 -9 c-7 -8 -17 -15 -22
-15 -6 0 -5 7 2 15 7 8 17 15 22 15 6 0 5 -7 -2 -15z m7347 -227 c-8 -18 -19
-45 -22 -61 -4 -15 -11 -30 -16 -32 -4 -3 0 18 10 47 28 78 33 89 39 84 2 -3
-2 -20 -11 -38z m-95 -30 c-7 -7 -12 -8 -12 -2 0 14 12 26 19 19 2 -3 -1 -11
-7 -17z m-5356 -33 c-11 -8 -25 -15 -30 -15 -6 1 0 7 14 15 32 19 40 18 16 0z
m5151 -22 c-3 -10 -5 -4 -5 12 0 17 2 24 5 18 2 -7 2 -21 0 -30z m-10 -45 c-3
-8 -6 -5 -6 6 -1 11 2 17 5 13 3 -3 4 -12 1 -19z m-330 0 c0 -7 3 -24 7 -38 7
-24 6 -24 -8 -6 -17 21 -22 56 -8 56 5 0 9 -6 9 -12z m532 -20 c-16 -30 -99
-148 -105 -148 -2 0 20 36 51 81 30 44 55 85 55 91 0 6 3 9 6 6 3 -4 0 -17 -7
-30z m-6207 -14 c2 -19 0 -37 -4 -40 -4 -3 -8 13 -8 35 0 51 6 53 12 5z m29
-151 c10 -24 16 -43 13 -43 -8 0 -44 83 -43 100 1 13 1 13 6 0 3 -8 14 -34 24
-57z m4291 45 c-7 -7 -12 -8 -12 -2 0 14 12 26 19 19 2 -3 -1 -11 -7 -17z
m-5537 -58 c3 -5 1 -10 -4 -10 -6 0 -11 5 -11 10 0 6 2 10 4 10 3 0 8 -4 11
-10z m7305 -21 c0 -11 -4 -18 -10 -14 -5 3 -7 12 -3 20 7 21 13 19 13 -6z
m-5980 -68 c-1 -11 -50 50 -50 62 0 6 11 -4 25 -23 14 -19 25 -36 25 -39z m45
-29 c-3 -3 -11 0 -18 7 -9 10 -8 11 6 5 10 -3 15 -9 12 -12z m5719 -86 c36
-111 50 -254 41 -408 -4 -71 -11 -128 -16 -128 -5 0 -6 34 -1 78 17 181 0 353
-48 490 -23 64 -24 70 -11 57 5 -6 21 -46 35 -89z m-644 19 c18 -10 20 -14 8
-15 -23 0 -48 11 -48 21 0 12 11 11 40 -6z m-1060 -43 c0 -15 -2 -15 -10 -2
-13 20 -13 33 0 25 6 -3 10 -14 10 -23z m1617 -34 c-3 -8 -6 -5 -6 6 -1 11 2
17 5 13 3 -3 4 -12 1 -19z m-375 -150 c-8 -8 -9 -4 -5 13 4 13 8 18 11 10 2
-7 -1 -18 -6 -23z m-4598 -116 c-7 -7 -112 -52 -189 -82 -11 -4 -38 -15 -60
-23 -22 -9 -51 -19 -65 -23 -60 -16 -190 -78 -190 -91 0 -8 -5 -11 -10 -8 -11
7 -143 -66 -155 -85 -7 -11 38 1 100 29 78 34 76 24 -3 -15 -41 -21 -109 -69
-159 -113 -47 -42 -105 -85 -127 -96 -48 -24 -60 -58 -24 -69 13 -4 18 -10 11
-12 -6 -3 -23 2 -37 12 -26 16 -27 16 -65 -24 -58 -62 -134 -179 -166 -255
-15 -37 -30 -65 -33 -63 -7 8 38 118 83 201 24 44 43 83 42 86 -1 3 5 13 13
21 8 9 65 69 125 133 86 92 134 134 220 190 135 89 357 198 450 221 6 2 62 21
125 42 107 37 137 43 114 24z m1476 -36 c0 -2 -8 -10 -17 -17 -16 -13 -17 -12
-4 4 13 16 21 21 21 13z m-2189 -195 c-11 -20 -83 -81 -96 -81 -13 0 -137
-125 -188 -190 -28 -36 -83 -99 -122 -140 -97 -104 -161 -191 -179 -247 -9
-27 -19 -102 -24 -168 -5 -66 -10 -99 -11 -73 0 26 -6 58 -12 71 -9 20 -3 46
32 151 23 71 50 135 59 145 9 9 27 32 40 51 13 19 63 76 111 125 48 50 98 104
111 120 12 17 25 32 28 35 3 3 27 31 53 62 44 53 121 118 140 118 4 0 16 9 27
20 26 26 44 27 31 1z m119 -219 c-89 -74 -180 -166 -216 -218 -36 -52 -64 -75
-64 -52 0 12 -11 5 -13 -9 0 -4 -12 -19 -25 -33 -28 -30 -57 -81 -53 -94 3
-13 -32 -86 -42 -86 -8 0 -2 33 14 84 14 45 93 167 133 205 20 19 36 33 36 30
0 -3 24 17 53 44 76 72 196 167 210 166 7 0 -8 -17 -33 -37z m456 -26 c-10 -6
-34 -21 -53 -34 -20 -13 -37 -21 -39 -19 -6 6 38 44 71 61 32 17 51 10 21 -8z
m-575 -184 c-11 -16 -27 -35 -37 -42 -9 -8 -33 -39 -54 -70 -104 -153 -127
-244 -131 -520 l-2 -105 -8 80 c-10 91 2 235 27 335 27 107 86 210 172 303 51
53 63 60 33 19z m2704 19 c3 -5 1 -12 -5 -16 -5 -3 -10 1 -10 9 0 18 6 21 15
7z m2445 -91 c-8 -5 -19 -10 -25 -10 -5 0 -3 5 5 10 8 5 20 10 25 10 6 0 3 -5
-5 -10z m-740 -18 c0 -31 -202 -222 -235 -222 -5 0 13 15 41 34 50 34 184 170
184 187 0 5 2 9 5 9 3 0 5 -4 5 -8z m665 -18 c-8 -9 -20 -12 -26 -8 -9 5 -7
11 6 20 23 17 40 7 20 -12z m-3075 -58 c0 -3 -4 -8 -10 -11 -5 -3 -10 -1 -10
4 0 6 5 11 10 11 6 0 10 -2 10 -4z m3019 -30 c-14 -13 -79 -44 -79 -38 0 5 15
15 33 24 31 15 55 22 46 14z m-269 -31 c-7 -8 -19 -15 -26 -15 -8 0 -23 -9
-35 -21 -11 -11 -23 -18 -26 -15 -10 10 55 66 77 66 19 0 20 -2 10 -15z
m-2352 -101 c-5 -28 -28 -29 -28 -1 0 13 3 27 7 31 10 10 25 -10 21 -30z m77
27 c3 -5 1 -12 -5 -16 -5 -3 -10 1 -10 9 0 18 6 21 15 7z m1650 -32 c-22 -10
-47 -18 -55 -18 -8 0 5 8 30 19 59 24 76 24 25 -1z m-4434 -20 c-5 -13 -10
-19 -10 -12 -1 15 10 45 15 40 3 -2 0 -15 -5 -28z m-164 -11 c-3 -7 -5 -2 -5
12 0 14 2 19 5 13 2 -7 2 -19 0 -25z m4315 -1 c-20 -6 -36 -6 -42 -1 -5 5 8
10 33 10 l42 2 -33 -11z m171 6 c-13 -2 -35 -2 -50 0 -16 2 -5 4 22 4 28 0 40
-2 28 -4z m-2743 -93 c0 -6 -28 -10 -65 -10 -37 0 -65 4 -65 10 0 6 28 10 65
10 37 0 65 -4 65 -10z m212 -16 c32 -9 61 -21 64 -25 2 -5 -14 -2 -36 6 -23 8
-84 18 -136 21 -58 4 -90 10 -82 16 18 11 118 2 190 -18z m-357 7 c-6 -5 -48
-16 -94 -25 -119 -23 -233 -79 -341 -165 -25 -20 -54 -43 -65 -51 -18 -14 -19
-14 -7 2 49 62 282 200 385 227 78 21 137 27 122 12z m-1468 -48 c-3 -10 -5
-4 -5 12 0 17 2 24 5 18 2 -7 2 -21 0 -30z m-10 -70 c-3 -10 -5 -2 -5 17 0 19
2 27 5 18 2 -10 2 -26 0 -35z m160 -30 c-2 -16 -4 -5 -4 22 0 28 2 40 4 28 2
-13 2 -35 0 -50z m2948 16 c-40 -41 -178 -139 -196 -139 -6 0 -37 -18 -70 -41
-33 -22 -63 -38 -66 -35 -12 12 26 38 157 110 30 16 57 32 60 36 3 4 31 25 62
48 31 23 59 46 63 52 3 5 11 10 18 10 6 0 -7 -18 -28 -41z m-1478 25 c-3 -3
-12 -4 -19 -1 -8 3 -5 6 6 6 11 1 17 -2 13 -5z m368 -54 c18 -8 18 -9 -5 -9
-14 0 -34 4 -45 9 -18 8 -18 9 5 9 14 0 34 -4 45 -9z m-2002 -55 c4 -34 3 -42
-3 -25 -8 25 -13 87 -6 79 2 -2 6 -26 9 -54z m3567 34 c0 -6 -4 -7 -10 -4 -5
3 -10 11 -10 16 0 6 5 7 10 4 6 -3 10 -11 10 -16z m-3583 -71 c-3 -8 -6 -5 -6
6 -1 11 2 17 5 13 3 -3 4 -12 1 -19z m183 -24 c0 -25 -4 -43 -9 -40 -4 3 -7
16 -6 28 1 13 3 31 4 41 2 36 11 15 11 -29z m3296 -25 c-8 -24 -14 -37 -15
-28 -1 19 20 82 25 76 2 -2 -2 -23 -10 -48z m-2533 -4 c-20 -25 -39 -45 -41
-45 -6 0 15 27 47 63 39 43 36 31 -6 -18z m-946 -2 c-3 -10 -5 -4 -5 12 0 17
2 24 5 18 2 -7 2 -21 0 -30z m30 0 c-3 -10 -5 -4 -5 12 0 17 2 24 5 18 2 -7 2
-21 0 -30z m4218 -12 c-3 -5 3 -11 12 -13 10 -3 1 -6 -20 -9 l-38 -5 23 18
c26 20 32 22 23 9z m-4055 -66 c0 -14 -2 -25 -4 -25 -2 0 -6 11 -8 25 -3 14
-1 25 3 25 5 0 9 -11 9 -25z m705 8 c-4 -10 -11 -31 -15 -48 -6 -23 -8 -25 -9
-8 -1 25 15 73 25 73 3 0 3 -8 -1 -17z m3291 -11 c-3 -5 -18 -13 -33 -17 -15
-3 -44 -15 -65 -25 -21 -10 -38 -15 -38 -11 0 16 126 75 139 65 1 -1 0 -7 -3
-12z m-1819 -25 c-4 -12 -41 -11 -65 2 -8 5 4 8 28 9 29 1 40 -2 37 -11z m568
3 c-3 -5 -11 -10 -16 -10 -6 0 -7 5 -4 10 3 6 11 10 16 10 6 0 7 -4 4 -10z
m470 0 c-3 -5 -12 -10 -18 -10 -7 0 -6 4 3 10 19 12 23 12 15 0z m-920 -25
l50 -15 -50 2 c-56 1 -68 5 -60 19 4 5 7 9 8 9 1 -1 25 -7 52 -15z m880 5 c-3
-5 -14 -10 -23 -9 -14 0 -13 2 3 9 27 11 27 11 20 0z m-3307 -80 c0 -8 -6 1
-13 20 -7 19 -13 42 -13 50 0 8 6 -1 13 -20 7 -19 13 -42 13 -50z m2666 55
c-9 -22 -114 -19 -114 4 0 3 27 7 60 8 48 2 58 0 54 -12z m126 6 c-8 -5 -26
-11 -40 -15 -21 -5 -20 -3 5 9 32 15 60 20 35 6z m-257 -8 c-7 -2 -21 -2 -30
0 -10 3 -4 5 12 5 17 0 24 -2 18 -5z m-2356 -50 c-3 -10 -5 -4 -5 12 0 17 2
24 5 18 2 -7 2 -21 0 -30z m3763 27 c-8 -5 -19 -10 -25 -10 -5 0 -3 5 5 10 8
5 20 10 25 10 6 0 3 -5 -5 -10z m-1123 -16 c-3 -3 -25 -7 -49 -10 l-43 -3 38
8 c20 4 40 11 44 14 3 4 9 5 11 2 3 -3 3 -8 -1 -11z m-2630 -81 c-3 -10 -5 -2
-5 17 0 19 2 27 5 18 2 -10 2 -26 0 -35z m-20 -15 c-2 -13 -4 -5 -4 17 -1 22
1 32 4 23 2 -10 2 -28 0 -40z m3344 -37 c-7 -13 -35 -28 -77 -41 -75 -23 -84
-24 -84 -11 0 5 26 17 58 26 31 9 68 25 82 35 30 22 36 19 21 -9z m-3334 -23
c-3 -8 -6 -5 -6 6 -1 11 2 17 5 13 3 -3 4 -12 1 -19z m42 -23 c0 -5 -4 -3 -9
5 -5 8 -9 22 -9 30 0 16 17 -16 18 -35z m-42 -27 c-3 -7 -5 -2 -5 12 0 14 2
19 5 13 2 -7 2 -19 0 -25z m72 -43 c0 -5 -6 1 -14 15 -8 14 -14 30 -14 35 0 6
6 -1 14 -15 8 -14 14 -29 14 -35z m-62 -7 c-3 -8 -6 -5 -6 6 -1 11 2 17 5 13
3 -3 4 -12 1 -19z m-364 -44 c8 -9 -11 -44 -23 -44 -6 0 -10 11 -10 25 0 23
18 34 33 19z m3318 -31 c-8 -15 -10 -15 -11 -2 0 17 10 32 18 25 2 -3 -1 -13
-7 -23z m-2821 -23 c12 -16 17 -30 11 -30 -6 0 -17 14 -26 30 -9 17 -13 30
-11 30 3 0 14 -13 26 -30z m-80 -35 c0 -5 -5 -3 -10 5 -5 8 -10 20 -10 25 0 6
5 3 10 -5 5 -8 10 -19 10 -25z m200 -162 c18 -26 25 -41 17 -34 -16 13 -60 81
-52 81 2 0 18 -21 35 -47z m665 -200 c22 -8 53 -26 68 -41 39 -36 120 -143
113 -149 -2 -3 -30 29 -61 71 -62 85 -88 102 -184 121 -60 13 -62 14 -21 13
25 -1 63 -8 85 -15z m730 -333 c70 0 86 -3 71 -11 -19 -12 -238 -6 -283 7 -47
13 -21 20 50 13 39 -4 113 -8 162 -9z m195 10 c0 -5 -13 -10 -29 -10 -16 0
-36 -3 -45 -6 -9 -3 -16 -1 -16 4 0 10 24 16 73 21 9 0 17 -3 17 -9z"/>
<path d="M4874 8331 c-54 -25 -81 -64 -100 -148 -46 -199 -75 -248 -205 -351
-97 -76 -124 -131 -116 -235 4 -56 10 -75 34 -105 63 -79 149 -91 261 -36 70
34 184 150 203 206 7 22 26 56 41 75 28 36 36 59 58 163 6 30 18 84 25 119 25
114 -10 266 -69 304 -39 26 -87 29 -132 8z"/>
<path d="M5525 8336 c-20 -8 -40 -32 -59 -66 -27 -50 -29 -61 -29 -169 0 -222
76 -413 224 -561 64 -64 136 -101 210 -107 78 -8 100 0 153 52 46 44 46 45 46
112 0 94 -30 155 -106 219 -133 111 -173 170 -194 285 -25 132 -63 199 -134
233 -41 19 -71 20 -111 2z"/>
<path d="M4021 7544 c0 -11 3 -14 6 -6 3 7 2 16 -1 19 -3 4 -6 -2 -5 -13z"/>
<path d="M5205 7404 c-21 -7 -50 -24 -65 -39 -40 -38 -87 -138 -106 -225 -43
-201 -26 -356 82 -724 20 -67 44 -151 55 -188 14 -48 28 -73 50 -92 36 -31 36
-31 75 -7 21 13 37 36 51 72 33 86 128 416 140 487 3 18 9 35 14 38 5 3 9 72
9 153 0 282 -49 431 -168 509 -36 23 -96 31 -137 16z"/>
<path d="M3756 6772 c-15 -9 -42 -30 -60 -46 -233 -215 -415 -285 -701 -273
-157 8 -227 16 -240 28 -14 13 -99 11 -119 -4 -15 -11 -14 -13 16 -15 18 -1
42 -6 53 -11 11 -5 56 -19 100 -30 116 -31 233 -69 210 -70 -26 0 -83 11 -230
44 -154 35 -318 55 -375 46 l-45 -6 87 -29 c49 -15 94 -29 100 -30 7 -2 31 -6
53 -11 22 -4 56 -17 75 -29 19 -11 39 -20 44 -18 4 1 13 -1 20 -6 6 -5 55 -12
109 -16 54 -4 121 -11 149 -17 61 -13 168 -5 209 17 16 8 30 14 31 13 2 -1 22
4 45 10 56 15 64 30 10 20 -54 -10 -177 -11 -177 -1 0 4 17 8 38 8 20 1 79 12
131 25 73 18 111 34 165 70 121 80 246 206 319 322 20 32 21 32 -17 9z m-679
-428 c-3 -3 -12 -4 -19 -1 -8 3 -5 6 6 6 11 1 17 -2 13 -5z"/>
<path d="M2175 6575 c-116 -21 -283 -96 -277 -124 1 -7 -2 -10 -8 -6 -6 3 -22
-3 -37 -15 l-27 -21 35 6 c18 3 51 15 72 25 20 11 37 18 37 15 0 -2 11 0 25 5
30 11 54 17 155 37 75 14 242 13 418 -3 50 -4 72 -3 72 5 0 6 -10 11 -23 11
-13 0 -33 9 -45 21 -16 15 -54 26 -134 40 -126 22 -165 22 -263 4z"/>
<path d="M2848 6513 c6 -2 18 -2 25 0 6 3 1 5 -13 5 -14 0 -19 -2 -12 -5z"/>
<path d="M1626 6177 c-26 -25 -76 -112 -76 -133 0 -8 -9 -19 -20 -26 -11 -7
-20 -18 -20 -23 0 -6 -8 -27 -19 -48 -10 -20 -15 -34 -10 -31 5 3 9 -45 10
-108 0 -62 3 -107 6 -100 2 6 9 10 13 7 10 -6 18 33 24 110 2 28 6 57 9 65 3
8 10 35 16 60 15 68 80 203 106 222 6 5 5 8 -3 8 -7 0 -10 5 -7 10 11 17 -3
11 -29 -13z"/>
<path d="M2144 6122 c9 -46 16 -58 33 -60 12 -2 23 4 27 14 7 19 -24 73 -52
91 -18 11 -18 9 -8 -45z"/>
<path d="M2136 6032 c-10 -17 16 -83 46 -118 29 -33 32 -34 49 -18 24 22 24
48 -1 102 -17 38 -23 42 -54 42 -19 0 -37 -4 -40 -8z"/>
<path d="M2385 5950 c3 -5 8 -10 11 -10 2 0 4 5 4 10 0 6 -5 10 -11 10 -5 0
-7 -4 -4 -10z"/>
<path d="M8460 5946 c0 -2 7 -7 16 -10 8 -3 12 -2 9 4 -6 10 -25 14 -25 6z"/>
<path d="M2360 5866 c0 -2 9 -6 20 -9 11 -3 18 -1 14 4 -5 9 -34 13 -34 5z"/>
<path d="M2428 5843 c7 -3 16 -2 19 1 4 3 -2 6 -13 5 -11 0 -14 -3 -6 -6z"/>
<path d="M1552 5527 c-9 -11 -10 -17 -2 -22 15 -9 23 -1 18 21 -3 15 -4 16
-16 1z"/>
<path d="M1560 5469 c0 -11 7 -27 15 -35 13 -14 15 -14 15 0 0 9 -5 16 -11 16
-6 0 -8 9 -4 20 4 11 2 20 -4 20 -6 0 -11 -9 -11 -21z"/>
<path d="M7902 5453 c5 -21 12 -67 15 -103 3 -36 10 -70 15 -77 5 -7 7 -17 3
-22 -3 -6 0 -22 8 -37 12 -23 13 -16 12 73 -1 85 -5 105 -28 151 -15 28 -29
52 -31 52 -2 0 0 -17 6 -37z"/>
<path d="M1546 5335 c-9 -26 -7 -32 5 -12 6 10 9 21 6 23 -2 3 -7 -2 -11 -11z"/>
<path d="M8782 5155 c-12 -15 -18 -33 -15 -46 5 -19 7 -19 15 -5 5 9 6 21 2
28 -4 6 -3 8 4 4 6 -3 14 3 17 15 10 31 0 33 -23 4z"/>
<path d="M4701 4862 c-7 -13 -11 -26 -8 -28 8 -8 29 25 25 38 -3 8 -9 4 -17
-10z"/>
<path d="M7308 4473 c-18 -22 -3 -25 22 -5 18 15 20 19 6 19 -9 0 -21 -6 -28
-14z"/>
<path d="M7207 4383 c-20 -16 -44 -38 -52 -50 -14 -20 -47 -113 -40 -113 1 0
20 26 41 58 21 31 51 74 67 95 16 20 27 37 25 37 -3 0 -21 -12 -41 -27z"/>
<path d="M8211 4204 c0 -11 3 -14 6 -6 3 7 2 16 -1 19 -3 4 -6 -2 -5 -13z"/>
<path d="M8250 3956 c-5 -15 -14 -25 -19 -22 -15 9 -61 -53 -96 -129 -18 -38
-46 -90 -63 -115 -17 -24 -28 -47 -25 -50 9 -10 132 129 157 179 32 63 67 154
61 159 -2 3 -9 -7 -15 -22z"/>
<path d="M6967 3709 c-9 -6 -17 -17 -17 -26 0 -9 -14 -56 -31 -105 -17 -49
-28 -96 -25 -103 2 -7 -3 -23 -11 -36 -14 -20 -12 -20 15 5 40 37 69 107 82
197 6 39 9 73 8 75 -2 1 -11 -2 -21 -7z"/>
<path d="M2840 3432 c0 -5 -11 -15 -25 -22 -22 -12 -81 -87 -129 -165 l-18
-30 23 20 c46 38 119 116 119 126 0 7 -6 6 -17 -2 -16 -13 -17 -12 -4 3 7 10
18 15 23 12 5 -3 12 3 15 15 3 11 14 23 24 26 11 4 17 11 14 16 -8 11 -25 12
-25 1z"/>
<path d="M6430 3321 c0 -4 12 -7 26 -5 38 4 42 14 6 14 -18 0 -32 -4 -32 -9z"/>
<path d="M2800 3259 c0 -11 -4 -18 -9 -15 -10 7 -77 -99 -86 -137 -4 -15 -11
-27 -15 -27 -11 0 -70 -134 -70 -161 0 -14 5 -30 12 -37 9 -9 16 -5 30 18 10
17 18 36 18 43 0 6 15 19 32 27 28 14 31 21 33 65 1 28 6 59 12 70 6 11 14 36
18 55 4 19 11 40 15 45 14 20 29 75 19 75 -5 0 -9 -9 -9 -21z"/>
<path d="M2690 3215 c-7 -9 -11 -18 -8 -20 3 -3 11 1 18 10 7 9 11 18 8 20 -3
3 -11 -1 -18 -10z"/>
<path d="M5360 3221 c0 -6 4 -13 10 -16 6 -3 7 1 4 9 -7 18 -14 21 -14 7z"/>
<path d="M5322 3175 c-24 -25 -30 -54 -9 -51 35 5 64 48 44 64 -9 8 -19 4 -35
-13z"/>
<path d="M2650 3160 c0 -6 7 -10 15 -10 8 0 15 2 15 4 0 2 -7 6 -15 10 -8 3
-15 1 -15 -4z"/>
<path d="M2626 3134 c-4 -9 -4 -19 -1 -22 2 -3 7 3 11 12 4 9 4 19 1 22 -2 3
-7 -3 -11 -12z"/>
<path d="M2722 2940 c0 -14 2 -19 5 -12 2 6 2 18 0 25 -3 6 -5 1 -5 -13z"/>
<path d="M4420 2952 c0 -16 62 -64 76 -58 7 3 14 1 16 -4 2 -5 41 -11 88 -14
47 -3 77 -3 67 0 -9 3 -15 10 -12 15 4 5 -5 9 -18 9 -23 0 -160 37 -199 55
-11 4 -18 3 -18 -3z"/>
<path d="M3648 7473 c6 -2 18 -2 25 0 6 3 1 5 -13 5 -14 0 -19 -2 -12 -5z"/>
<path d="M2340 5609 c0 -5 -11 -7 -23 -5 -13 2 -30 0 -38 -5 -9 -6 2 -9 33 -9
47 0 71 13 43 24 -8 3 -15 1 -15 -5z"/>
<path d="M2391 5601 c3 -8 32 -13 81 -14 91 -3 78 11 -18 20 -50 5 -66 3 -63
-6z"/>
<path d="M2158 5565 c-41 -15 -109 -59 -148 -97 -69 -66 -157 -199 -144 -219
4 -7 3 -9 -3 -6 -6 4 -13 -2 -16 -13 -3 -13 3 -24 18 -34 22 -14 23 -13 41 27
11 23 36 64 57 92 20 27 37 53 37 56 0 4 19 22 43 40 l42 33 -40 -44 c-39 -43
-40 -43 -6 -19 72 52 217 118 263 120 19 1 17 3 -10 12 -41 13 -130 -2 -192
-32 -62 -30 -60 -20 2 15 49 27 61 29 155 29 57 0 103 3 103 6 0 3 -10 10 -22
16 -81 37 -117 41 -180 18z"/>
<path d="M2480 5230 c0 -60 23 -157 45 -190 28 -41 79 -74 101 -66 13 5 13 8
0 28 -8 13 -24 53 -36 90 -15 48 -34 82 -65 115 -41 45 -44 46 -45 23z"/>
<path d="M2635 3880 c-3 -5 -1 -10 4 -10 6 0 11 5 11 10 0 6 -2 10 -4 10 -3 0
-8 -4 -11 -10z"/>
</g>
</svg>
